<svg width="364" height="55" viewBox="0 0 364 55" fill="none" xmlns="http://www.w3.org/2000/svg">
<mask id="path-1-outside-1_73_151" maskUnits="userSpaceOnUse" x="2.41553" y="-1.6698" width="246" height="56" fill="black">
<rect fill="white" x="2.41553" y="-1.6698" width="246" height="56"/>
<path d="M26.4879 52.1847C19.4241 52.1847 14.1377 50.601 10.6285 47.4337C7.14221 44.2664 5.3079 40.199 5.12561 35.2316H11.5172C11.859 38.9685 13.4085 41.7371 16.1656 43.5372C18.9456 45.3146 22.2952 46.2032 26.2145 46.2032C29.9287 46.2032 32.9137 45.4399 35.1696 43.9132C37.4482 42.3865 38.5875 40.3129 38.5875 37.6925C38.5875 34.9353 37.414 32.9301 35.067 31.6769C32.72 30.4236 28.6754 29.1932 22.9332 27.9855C17.2138 26.755 13.1009 25.0574 10.5944 22.8927C8.11064 20.728 6.86877 17.8455 6.86877 14.2452C6.86877 10.1892 8.48661 6.86243 11.7223 4.26477C14.9808 1.66711 19.2988 0.368286 24.6764 0.368286C30.3274 0.368286 34.8847 1.67851 38.3483 4.29895C41.8118 6.91939 43.6461 10.6222 43.8512 15.4073H37.3912C36.7304 9.34615 32.5833 6.31555 24.9498 6.31555C21.2584 6.31555 18.3987 7.01054 16.3707 8.40051C14.3427 9.79049 13.3287 11.6362 13.3287 13.9376C13.3287 16.034 14.1377 17.6062 15.7555 18.6544C17.3961 19.7026 20.4381 20.7166 24.8815 21.6964C29.3476 22.6762 32.8909 23.6447 35.5114 24.6017C38.1318 25.5587 40.3763 27.0512 42.2448 29.0792C44.1132 31.0844 45.0475 33.7846 45.0475 37.1798C45.0475 41.4865 43.3271 45.0639 39.8864 47.9122C36.4684 50.7605 32.0022 52.1847 26.4879 52.1847ZM59.8815 19.6798C63.0944 16.0568 66.706 14.2452 70.7164 14.2452C78.8968 14.2452 82.9869 18.7 82.9869 27.6095V51.3302H76.527V27.8829C76.527 24.9207 75.9915 22.7902 74.9205 21.4913C73.8724 20.1925 72.1406 19.5431 69.7252 19.5431C66.444 19.5431 63.1627 21.4799 59.8815 25.3536V51.3302H53.4215V1.22278H59.8815V19.6798ZM98.8463 51.3302H92.3864V15.0656H98.8463V51.3302ZM98.8463 8.19543H92.3864V1.22278H98.8463V8.19543ZM123.797 52.1847C118.465 52.1847 114.182 50.5213 110.946 47.1945C107.71 43.8448 106.092 39.185 106.092 33.215C106.092 27.2905 107.653 22.6534 110.775 19.3038C113.92 15.9314 118.021 14.2452 123.08 14.2452C128.252 14.2452 132.377 15.8973 135.453 19.2013C138.552 22.5053 140.101 27.1766 140.101 33.215V34.7531H112.792C113.065 38.9458 114.216 42.0561 116.244 44.0841C118.295 46.1121 120.812 47.1261 123.797 47.1261C126.053 47.1261 128.081 46.5564 129.881 45.4171C131.704 44.255 132.661 42.6144 132.753 40.4952H139.418C138.916 44.2322 137.219 47.1147 134.325 49.1427C131.454 51.1707 127.945 52.1847 123.797 52.1847ZM133.299 29.6945C132.775 26.2081 131.602 23.5991 129.779 21.8673C127.956 20.1355 125.723 19.2697 123.08 19.2697C120.505 19.2697 118.295 20.1355 116.449 21.8673C114.603 23.5763 113.43 26.1853 112.928 29.6945H133.299ZM153.807 51.3302H147.347V1.22278H153.807V51.3302ZM186.312 40.9054V23.6788C183.532 20.7394 180.353 19.2697 176.776 19.2697C174.019 19.2697 171.809 20.4659 170.145 22.8585C168.505 25.2283 167.684 28.7716 167.684 33.4884C167.684 37.9545 168.459 41.3497 170.008 43.674C171.581 45.9754 173.745 47.1261 176.503 47.1261C180.103 47.1261 183.373 45.0525 186.312 40.9054ZM186.312 46.9894C183.441 50.4529 179.989 52.1847 175.956 52.1847C171.216 52.1847 167.547 50.4985 164.95 47.1261C162.352 43.7537 161.053 39.2078 161.053 33.4884C161.053 27.5639 162.5 22.8813 165.394 19.4406C168.311 15.977 171.968 14.2452 176.366 14.2452C180.285 14.2452 183.601 15.4529 186.312 17.8683V1.22278H192.738V51.3302H186.312V46.9894ZM215.262 52.1847C205.35 52.1847 200.166 48.2882 199.711 40.4952H206.171C206.216 44.9158 209.224 47.1261 215.194 47.1261C217.86 47.1261 219.888 46.5792 221.278 45.4855C222.691 44.3689 223.397 42.979 223.397 41.3156C223.397 39.6749 222.714 38.5242 221.346 37.8634C219.979 37.1798 217.154 36.3025 212.87 35.2316C208.609 34.1606 205.487 32.9643 203.505 31.6427C201.545 30.3211 200.565 27.9969 200.565 24.67C200.565 21.6622 201.784 19.1785 204.222 17.2189C206.683 15.2365 209.964 14.2452 214.066 14.2452C223.568 14.2452 228.422 17.629 228.627 24.3966H222.201C221.973 20.9786 219.409 19.2697 214.51 19.2697C212.346 19.2697 210.546 19.6798 209.11 20.5001C207.697 21.3204 206.991 22.5167 206.991 24.089C206.991 25.5017 207.538 26.5271 208.631 27.1652C209.725 27.7804 212.46 28.6235 216.835 29.6945C221.232 30.7426 224.491 31.9731 226.61 33.3859C228.752 34.7986 229.823 37.2368 229.823 40.7003C229.823 44.0044 228.501 46.7501 225.858 48.9376C223.238 51.1023 219.706 52.1847 215.262 52.1847ZM245.785 51.3302H238.778V44.3234H245.785V51.3302Z"/>
</mask>
<path d="M26.4879 52.1847C19.4241 52.1847 14.1377 50.601 10.6285 47.4337C7.14221 44.2664 5.3079 40.199 5.12561 35.2316H11.5172C11.859 38.9685 13.4085 41.7371 16.1656 43.5372C18.9456 45.3146 22.2952 46.2032 26.2145 46.2032C29.9287 46.2032 32.9137 45.4399 35.1696 43.9132C37.4482 42.3865 38.5875 40.3129 38.5875 37.6925C38.5875 34.9353 37.414 32.9301 35.067 31.6769C32.72 30.4236 28.6754 29.1932 22.9332 27.9855C17.2138 26.755 13.1009 25.0574 10.5944 22.8927C8.11064 20.728 6.86877 17.8455 6.86877 14.2452C6.86877 10.1892 8.48661 6.86243 11.7223 4.26477C14.9808 1.66711 19.2988 0.368286 24.6764 0.368286C30.3274 0.368286 34.8847 1.67851 38.3483 4.29895C41.8118 6.91939 43.6461 10.6222 43.8512 15.4073H37.3912C36.7304 9.34615 32.5833 6.31555 24.9498 6.31555C21.2584 6.31555 18.3987 7.01054 16.3707 8.40051C14.3427 9.79049 13.3287 11.6362 13.3287 13.9376C13.3287 16.034 14.1377 17.6062 15.7555 18.6544C17.3961 19.7026 20.4381 20.7166 24.8815 21.6964C29.3476 22.6762 32.8909 23.6447 35.5114 24.6017C38.1318 25.5587 40.3763 27.0512 42.2448 29.0792C44.1132 31.0844 45.0475 33.7846 45.0475 37.1798C45.0475 41.4865 43.3271 45.0639 39.8864 47.9122C36.4684 50.7605 32.0022 52.1847 26.4879 52.1847ZM59.8815 19.6798C63.0944 16.0568 66.706 14.2452 70.7164 14.2452C78.8968 14.2452 82.9869 18.7 82.9869 27.6095V51.3302H76.527V27.8829C76.527 24.9207 75.9915 22.7902 74.9205 21.4913C73.8724 20.1925 72.1406 19.5431 69.7252 19.5431C66.444 19.5431 63.1627 21.4799 59.8815 25.3536V51.3302H53.4215V1.22278H59.8815V19.6798ZM98.8463 51.3302H92.3864V15.0656H98.8463V51.3302ZM98.8463 8.19543H92.3864V1.22278H98.8463V8.19543ZM123.797 52.1847C118.465 52.1847 114.182 50.5213 110.946 47.1945C107.71 43.8448 106.092 39.185 106.092 33.215C106.092 27.2905 107.653 22.6534 110.775 19.3038C113.92 15.9314 118.021 14.2452 123.08 14.2452C128.252 14.2452 132.377 15.8973 135.453 19.2013C138.552 22.5053 140.101 27.1766 140.101 33.215V34.7531H112.792C113.065 38.9458 114.216 42.0561 116.244 44.0841C118.295 46.1121 120.812 47.1261 123.797 47.1261C126.053 47.1261 128.081 46.5564 129.881 45.4171C131.704 44.255 132.661 42.6144 132.753 40.4952H139.418C138.916 44.2322 137.219 47.1147 134.325 49.1427C131.454 51.1707 127.945 52.1847 123.797 52.1847ZM133.299 29.6945C132.775 26.2081 131.602 23.5991 129.779 21.8673C127.956 20.1355 125.723 19.2697 123.08 19.2697C120.505 19.2697 118.295 20.1355 116.449 21.8673C114.603 23.5763 113.43 26.1853 112.928 29.6945H133.299ZM153.807 51.3302H147.347V1.22278H153.807V51.3302ZM186.312 40.9054V23.6788C183.532 20.7394 180.353 19.2697 176.776 19.2697C174.019 19.2697 171.809 20.4659 170.145 22.8585C168.505 25.2283 167.684 28.7716 167.684 33.4884C167.684 37.9545 168.459 41.3497 170.008 43.674C171.581 45.9754 173.745 47.1261 176.503 47.1261C180.103 47.1261 183.373 45.0525 186.312 40.9054ZM186.312 46.9894C183.441 50.4529 179.989 52.1847 175.956 52.1847C171.216 52.1847 167.547 50.4985 164.95 47.1261C162.352 43.7537 161.053 39.2078 161.053 33.4884C161.053 27.5639 162.5 22.8813 165.394 19.4406C168.311 15.977 171.968 14.2452 176.366 14.2452C180.285 14.2452 183.601 15.4529 186.312 17.8683V1.22278H192.738V51.3302H186.312V46.9894ZM215.262 52.1847C205.35 52.1847 200.166 48.2882 199.711 40.4952H206.171C206.216 44.9158 209.224 47.1261 215.194 47.1261C217.86 47.1261 219.888 46.5792 221.278 45.4855C222.691 44.3689 223.397 42.979 223.397 41.3156C223.397 39.6749 222.714 38.5242 221.346 37.8634C219.979 37.1798 217.154 36.3025 212.87 35.2316C208.609 34.1606 205.487 32.9643 203.505 31.6427C201.545 30.3211 200.565 27.9969 200.565 24.67C200.565 21.6622 201.784 19.1785 204.222 17.2189C206.683 15.2365 209.964 14.2452 214.066 14.2452C223.568 14.2452 228.422 17.629 228.627 24.3966H222.201C221.973 20.9786 219.409 19.2697 214.51 19.2697C212.346 19.2697 210.546 19.6798 209.11 20.5001C207.697 21.3204 206.991 22.5167 206.991 24.089C206.991 25.5017 207.538 26.5271 208.631 27.1652C209.725 27.7804 212.46 28.6235 216.835 29.6945C221.232 30.7426 224.491 31.9731 226.61 33.3859C228.752 34.7986 229.823 37.2368 229.823 40.7003C229.823 44.0044 228.501 46.7501 225.858 48.9376C223.238 51.1023 219.706 52.1847 215.262 52.1847ZM245.785 51.3302H238.778V44.3234H245.785V51.3302Z" fill="#1D3C6A"/>
<path d="M10.6285 47.4337L9.28367 48.914L9.28848 48.9184L10.6285 47.4337ZM5.12561 35.2316V33.2316H3.05087L3.12696 35.3049L5.12561 35.2316ZM11.5172 35.2316L13.5089 35.0494L13.3426 33.2316H11.5172V35.2316ZM16.1656 43.5372L15.0723 45.2119L15.0803 45.2171L15.0883 45.2223L16.1656 43.5372ZM35.1696 43.9132L34.0563 42.2517L34.0486 42.2569L35.1696 43.9132ZM35.067 31.6769L34.125 33.4411L35.067 31.6769ZM22.9332 27.9855L22.5126 29.9408L22.5216 29.9427L22.9332 27.9855ZM10.5944 22.8927L9.28028 24.4004L9.28712 24.4063L10.5944 22.8927ZM11.7223 4.26477L10.4756 2.70089L10.4702 2.70518L11.7223 4.26477ZM38.3483 4.29895L39.555 2.704L38.3483 4.29895ZM43.8512 15.4073V17.4073H45.9387L45.8494 15.3217L43.8512 15.4073ZM37.3912 15.4073L35.403 15.6241L35.5974 17.4073H37.3912V15.4073ZM15.7555 18.6544L14.668 20.333L14.6787 20.3398L15.7555 18.6544ZM24.8815 21.6964L24.4508 23.6495L24.4529 23.65L24.8815 21.6964ZM35.5114 24.6017L34.8252 26.4803L35.5114 24.6017ZM42.2448 29.0792L40.7739 30.4344L40.7815 30.4427L42.2448 29.0792ZM39.8864 47.9122L38.611 46.3716L38.606 46.3758L39.8864 47.9122ZM26.4879 50.1847C19.6806 50.1847 14.965 48.6536 11.9686 45.949L9.28848 48.9184C13.3103 52.5485 19.1676 54.1847 26.4879 54.1847V50.1847ZM11.9734 45.9534C8.90937 43.1697 7.28804 39.621 7.12427 35.1582L3.12696 35.3049C3.32777 40.777 5.37506 45.3631 9.28368 48.914L11.9734 45.9534ZM5.12561 37.2316H11.5172V33.2316H5.12561V37.2316ZM9.52553 35.4137C9.9142 39.6632 11.7276 43.0282 15.0723 45.2119L17.259 41.8626C15.0893 40.446 13.8038 38.2739 13.5089 35.0494L9.52553 35.4137ZM15.0883 45.2223C18.2462 47.2412 21.9861 48.2032 26.2145 48.2032V44.2032C22.6043 44.2032 19.645 43.3879 17.243 41.8522L15.0883 45.2223ZM26.2145 48.2032C30.1868 48.2032 33.6033 47.3882 36.2905 45.5695L34.0486 42.2569C32.2241 43.4916 29.6706 44.2032 26.2145 44.2032V48.2032ZM36.2828 45.5747C39.0847 43.6975 40.5875 41.0164 40.5875 37.6925H36.5875C36.5875 39.6095 35.8117 41.0756 34.0563 42.2517L36.2828 45.5747ZM40.5875 37.6925C40.5875 36.0255 40.2305 34.4724 39.4335 33.1105C38.6343 31.7448 37.4603 30.6876 36.0091 29.9126L34.125 33.4411C35.0208 33.9195 35.607 34.4915 35.9813 35.1309C36.3578 35.7742 36.5875 36.6023 36.5875 37.6925H40.5875ZM36.0091 29.9126C33.392 28.5152 29.1045 27.2396 23.3449 26.0283L22.5216 29.9427C28.2463 31.1467 32.048 32.3321 34.125 33.4411L36.0091 29.9126ZM23.3539 26.0302C17.746 24.8237 14.0275 23.2151 11.9016 21.3791L9.28712 24.4063C12.1742 26.8998 16.6816 28.6863 22.5126 29.9407L23.3539 26.0302ZM11.9084 21.385C9.90404 19.638 8.86877 17.3278 8.86877 14.2452H4.86877C4.86877 18.3632 6.31723 21.8179 9.28029 24.4004L11.9084 21.385ZM8.86877 14.2452C8.86877 10.8117 10.1989 8.05258 12.9744 5.82436L10.4702 2.70518C6.77437 5.67228 4.86877 9.56683 4.86877 14.2452H8.86877ZM12.969 5.82864C15.7816 3.58645 19.6186 2.36829 24.6764 2.36829V-1.63171C18.979 -1.63171 14.1799 -0.252222 10.4756 2.7009L12.969 5.82864ZM24.6764 2.36829C30.0233 2.36829 34.1174 3.60589 37.1416 5.8939L39.555 2.704C35.652 -0.248879 30.6315 -1.63171 24.6764 -1.63171V2.36829ZM37.1416 5.8939C40.0766 8.11451 41.6705 11.2344 41.853 15.493L45.8494 15.3217C45.6217 10.01 43.547 5.72428 39.555 2.704L37.1416 5.8939ZM43.8512 13.4073H37.3912V17.4073H43.8512V13.4073ZM39.3795 15.1906C39.0005 11.715 37.5777 8.8828 34.9653 6.97372C32.419 5.11297 28.9947 4.31555 24.9498 4.31555V8.31555C28.5385 8.31555 31.0044 9.03343 32.6052 10.2033C34.14 11.3248 35.1211 13.0385 35.403 15.6241L39.3795 15.1906ZM24.9498 4.31555C21.0452 4.31555 17.7294 5.04462 15.24 6.75081L17.5014 10.0502C19.0681 8.97645 21.4717 8.31555 24.9498 8.31555V4.31555ZM15.24 6.75081C12.7119 8.48355 11.3287 10.925 11.3287 13.9376H15.3287C15.3287 12.3474 15.9735 11.0974 17.5014 10.0502L15.24 6.75081ZM11.3287 13.9376C11.3287 16.6414 12.4243 18.8793 14.668 20.3329L16.843 16.9759C15.851 16.3332 15.3287 15.4266 15.3287 13.9376H11.3287ZM14.6787 20.3398C16.6469 21.5973 20.0033 22.6688 24.4508 23.6495L25.3121 19.7433C20.8729 18.7644 18.1454 17.8079 16.8323 16.969L14.6787 20.3398ZM24.4529 23.65C28.8792 24.621 32.3248 25.5671 34.8252 26.4803L36.1975 22.7231C33.4571 21.7222 29.816 20.7314 25.3101 19.7429L24.4529 23.65ZM34.8252 26.4803C37.1497 27.3293 39.1241 28.6438 40.7739 30.4344L43.7156 27.724C41.6284 25.4586 39.1138 23.7882 36.1975 22.7231L34.8252 26.4803ZM40.7815 30.4427C42.2275 31.9944 43.0475 34.164 43.0475 37.1798H47.0475C47.0475 33.4052 45.999 30.1745 43.708 27.7158L40.7815 30.4427ZM43.0475 37.1798C43.0475 40.8655 41.6124 43.887 38.611 46.3716L41.1617 49.4528C45.0418 46.2409 47.0475 42.1074 47.0475 37.1798H43.0475ZM38.606 46.3758C35.6272 48.8581 31.6499 50.1847 26.4879 50.1847V54.1847C32.3546 54.1847 37.3096 52.663 41.1667 49.4487L38.606 46.3758ZM59.8815 19.6798H57.8815V24.9495L61.3778 21.0068L59.8815 19.6798ZM82.9869 51.3302V53.3302H84.9869V51.3302H82.9869ZM76.527 51.3302H74.527V53.3302H76.527V51.3302ZM74.9205 21.4913L73.3641 22.7474L73.3708 22.7556L73.3775 22.7637L74.9205 21.4913ZM59.8815 25.3536L58.3554 24.0609L57.8815 24.6204V25.3536H59.8815ZM59.8815 51.3302V53.3302H61.8815V51.3302H59.8815ZM53.4215 51.3302H51.4215V53.3302H53.4215V51.3302ZM53.4215 1.22278V-0.777222H51.4215V1.22278H53.4215ZM59.8815 1.22278H61.8815V-0.777222H59.8815V1.22278ZM61.3778 21.0068C64.2969 17.715 67.3958 16.2452 70.7164 16.2452V12.2452C66.0162 12.2452 61.8918 14.3985 58.3851 18.3528L61.3778 21.0068ZM70.7164 16.2452C74.4523 16.2452 76.8996 17.2546 78.4461 18.9389C80.0223 20.6556 80.9869 23.4227 80.9869 27.6095H84.9869C84.9869 22.8868 83.9065 18.9717 81.3925 16.2337C78.8489 13.4633 75.1609 12.2452 70.7164 12.2452V16.2452ZM80.9869 27.6095V51.3302H84.9869V27.6095H80.9869ZM82.9869 49.3302H76.527V53.3302H82.9869V49.3302ZM78.527 51.3302V27.8829H74.527V51.3302H78.527ZM78.527 27.8829C78.527 24.7734 77.9829 22.0616 76.4636 20.219L73.3775 22.7637C74.0001 23.5188 74.527 25.068 74.527 27.8829H78.527ZM76.4769 20.2353C74.9023 18.2841 72.4645 17.5431 69.7252 17.5431V21.5431C71.8166 21.5431 72.8424 22.1009 73.3641 22.7474L76.4769 20.2353ZM69.7252 17.5431C65.596 17.5431 61.8083 19.9846 58.3554 24.0609L61.4076 26.6463C64.5172 22.9753 67.2919 21.5431 69.7252 21.5431V17.5431ZM57.8815 25.3536V51.3302H61.8815V25.3536H57.8815ZM59.8815 49.3302H53.4215V53.3302H59.8815V49.3302ZM55.4215 51.3302V1.22278H51.4215V51.3302H55.4215ZM53.4215 3.22278H59.8815V-0.777222H53.4215V3.22278ZM57.8815 1.22278V19.6798H61.8815V1.22278H57.8815ZM98.8463 51.3302V53.3302H100.846V51.3302H98.8463ZM92.3864 51.3302H90.3864V53.3302H92.3864V51.3302ZM92.3864 15.0656V13.0656H90.3864V15.0656H92.3864ZM98.8463 15.0656H100.846V13.0656H98.8463V15.0656ZM98.8463 8.19543V10.1954H100.846V8.19543H98.8463ZM92.3864 8.19543H90.3864V10.1954H92.3864V8.19543ZM92.3864 1.22278V-0.777222H90.3864V1.22278H92.3864ZM98.8463 1.22278H100.846V-0.777222H98.8463V1.22278ZM98.8463 49.3302H92.3864V53.3302H98.8463V49.3302ZM94.3864 51.3302V15.0656H90.3864V51.3302H94.3864ZM92.3864 17.0656H98.8463V13.0656H92.3864V17.0656ZM96.8463 15.0656V51.3302H100.846V15.0656H96.8463ZM98.8463 6.19543H92.3864V10.1954H98.8463V6.19543ZM94.3864 8.19543V1.22278H90.3864V8.19543H94.3864ZM92.3864 3.22278H98.8463V-0.777222H92.3864V3.22278ZM96.8463 1.22278V8.19543H100.846V1.22278H96.8463ZM110.946 47.1945L109.507 48.584L109.512 48.5889L110.946 47.1945ZM110.775 19.3038L109.312 17.9399L109.312 17.9403L110.775 19.3038ZM135.453 19.2013L133.989 20.5641L133.994 20.5695L135.453 19.2013ZM140.101 34.7531V36.7531H142.101V34.7531H140.101ZM112.792 34.7531V32.7531H110.657L110.796 34.8832L112.792 34.7531ZM116.244 44.0841L114.83 45.4983L114.837 45.5062L116.244 44.0841ZM129.881 45.4171L130.951 47.1071L130.957 47.1036L129.881 45.4171ZM132.753 40.4952V38.4952H130.837L130.754 40.4093L132.753 40.4952ZM139.418 40.4952L141.4 40.7612L141.704 38.4952H139.418V40.4952ZM134.325 49.1427L133.177 47.5048L133.171 47.5091L134.325 49.1427ZM133.299 29.6945V31.6945H135.623L135.277 29.3971L133.299 29.6945ZM116.449 21.8673L117.808 23.3349L117.817 23.3258L116.449 21.8673ZM112.928 29.6945L110.948 29.4116L110.622 31.6945H112.928V29.6945ZM123.797 50.1847C118.918 50.1847 115.182 48.6811 112.38 45.8L109.512 48.5889C113.181 52.3615 118.013 54.1847 123.797 54.1847V50.1847ZM112.384 45.8049C109.602 42.925 108.092 38.8188 108.092 33.215H104.092C104.092 39.5512 105.818 44.7647 109.507 48.584L112.384 45.8049ZM108.092 33.215C108.092 27.6429 109.554 23.5479 112.238 20.6674L109.312 17.9403C105.753 21.759 104.092 26.938 104.092 33.215H108.092ZM112.238 20.6678C114.965 17.7429 118.516 16.2452 123.08 16.2452V12.2452C117.526 12.2452 112.874 14.12 109.312 17.9399L112.238 20.6678ZM123.08 16.2452C127.786 16.2452 131.348 17.7272 133.989 20.5641L136.917 17.8385C133.405 14.0673 128.719 12.2452 123.08 12.2452V16.2452ZM133.994 20.5695C136.643 23.3933 138.101 27.5116 138.101 33.215H142.101C142.101 26.8415 140.461 21.6173 136.912 17.8331L133.994 20.5695ZM138.101 33.215V34.7531H142.101V33.215H138.101ZM140.101 32.7531H112.792V36.7531H140.101V32.7531ZM110.796 34.8832C111.087 39.3399 112.329 42.9978 114.83 45.4983L117.658 42.6699C116.103 41.1145 115.044 38.5516 114.787 34.6229L110.796 34.8832ZM114.837 45.5062C117.277 47.9186 120.306 49.1261 123.797 49.1261V45.1261C121.318 45.1261 119.312 44.3056 117.65 42.662L114.837 45.5062ZM123.797 49.1261C126.409 49.1261 128.812 48.4611 130.951 47.1071L128.812 43.7272C127.351 44.6518 125.698 45.1261 123.797 45.1261V49.1261ZM130.957 47.1036C133.317 45.5986 134.631 43.3673 134.751 40.5812L130.754 40.4093C130.692 41.8615 130.091 42.9114 128.806 43.7307L130.957 47.1036ZM132.753 42.4952H139.418V38.4952H132.753V42.4952ZM137.435 40.2293C137.003 43.4542 135.58 45.8209 133.177 47.5048L135.473 50.7806C138.857 48.4085 140.83 45.0103 141.4 40.7612L137.435 40.2293ZM133.171 47.5091C130.695 49.2582 127.608 50.1847 123.797 50.1847V54.1847C128.282 54.1847 132.213 53.0832 135.479 50.7763L133.171 47.5091ZM135.277 29.3971C134.713 25.644 133.41 22.558 131.156 20.4173L128.401 23.3173C129.794 24.6402 130.838 26.7723 131.322 29.9918L135.277 29.3971ZM131.156 20.4173C128.941 18.3129 126.207 17.2697 123.08 17.2697V21.2697C125.239 21.2697 126.971 21.9581 128.401 23.3173L131.156 20.4173ZM123.08 17.2697C120.006 17.2697 117.304 18.3225 115.08 20.4088L117.817 23.3258C119.285 21.9486 121.003 21.2697 123.08 21.2697V17.2697ZM115.09 20.3998C112.793 22.5265 111.489 25.6308 110.948 29.4116L114.908 29.9773C115.371 26.7398 116.413 24.6261 117.808 23.3348L115.09 20.3998ZM112.928 31.6945H133.299V27.6945H112.928V31.6945ZM153.807 51.3302V53.3302H155.807V51.3302H153.807ZM147.347 51.3302H145.347V53.3302H147.347V51.3302ZM147.347 1.22278V-0.777222H145.347V1.22278H147.347ZM153.807 1.22278H155.807V-0.777222H153.807V1.22278ZM153.807 49.3302H147.347V53.3302H153.807V49.3302ZM149.347 51.3302V1.22278H145.347V51.3302H149.347ZM147.347 3.22278H153.807V-0.777222H147.347V3.22278ZM151.807 1.22278V51.3302H155.807V1.22278H151.807ZM186.312 40.9054L187.944 42.0619L188.312 41.5423V40.9054H186.312ZM186.312 23.6788H188.312V22.8829L187.765 22.3046L186.312 23.6788ZM170.145 22.8585L168.503 21.7168L168.501 21.7201L170.145 22.8585ZM170.008 43.674L168.344 44.7834L168.351 44.7928L168.357 44.8021L170.008 43.674ZM186.312 46.9894H188.312V41.4428L184.772 45.713L186.312 46.9894ZM165.394 19.4406L163.864 18.1523L163.864 18.1532L165.394 19.4406ZM186.312 17.8683L184.982 19.3617L188.312 22.3282V17.8683H186.312ZM186.312 1.22278V-0.777222H184.312V1.22278H186.312ZM192.738 1.22278H194.738V-0.777222H192.738V1.22278ZM192.738 51.3302V53.3302H194.738V51.3302H192.738ZM186.312 51.3302H184.312V53.3302H186.312V51.3302ZM188.312 40.9054V23.6788H184.312V40.9054H188.312ZM187.765 22.3046C184.662 19.0232 180.978 17.2697 176.776 17.2697V21.2697C179.729 21.2697 182.402 22.4556 184.859 25.0531L187.765 22.3046ZM176.776 17.2697C173.321 17.2697 170.515 18.8228 168.503 21.7169L171.787 24.0002C173.102 22.1091 174.717 21.2697 176.776 21.2697V17.2697ZM168.501 21.7201C166.523 24.5763 165.684 28.6002 165.684 33.4884H169.684C169.684 28.943 170.486 25.8803 171.79 23.9969L168.501 21.7201ZM165.684 33.4884C165.684 38.1332 166.481 41.9878 168.344 44.7834L171.673 42.5645C170.437 40.7116 169.684 37.7759 169.684 33.4884H165.684ZM168.357 44.8021C170.297 47.642 173.076 49.1261 176.503 49.1261V45.1261C174.415 45.1261 172.864 44.3088 171.66 42.5458L168.357 44.8021ZM176.503 49.1261C180.993 49.1261 184.795 46.5044 187.944 42.0619L184.68 39.7489C181.95 43.6007 179.213 45.1261 176.503 45.1261V49.1261ZM184.772 45.713C182.232 48.7779 179.32 50.1847 175.956 50.1847V54.1847C180.658 54.1847 184.65 52.1279 187.852 48.2658L184.772 45.713ZM175.956 50.1847C171.756 50.1847 168.707 48.726 166.534 45.9056L163.365 48.3466C166.388 52.271 170.676 54.1847 175.956 54.1847V50.1847ZM166.534 45.9056C164.285 42.9862 163.053 38.917 163.053 33.4884H159.053C159.053 39.4986 160.419 44.5213 163.365 48.3466L166.534 45.9056ZM163.053 33.4884C163.053 27.8835 164.419 23.7072 166.925 20.7279L163.864 18.1532C160.582 22.0554 159.053 27.2443 159.053 33.4884H163.053ZM166.924 20.7288C169.474 17.7012 172.578 16.2452 176.366 16.2452V12.2452C171.358 12.2452 167.148 14.2529 163.864 18.1523L166.924 20.7288ZM176.366 16.2452C179.837 16.2452 182.667 17.2997 184.982 19.3617L187.642 16.3749C184.534 13.6062 180.733 12.2452 176.366 12.2452V16.2452ZM188.312 17.8683V1.22278H184.312V17.8683H188.312ZM186.312 3.22278H192.738V-0.777222H186.312V3.22278ZM190.738 1.22278V51.3302H194.738V1.22278H190.738ZM192.738 49.3302H186.312V53.3302H192.738V49.3302ZM188.312 51.3302V46.9894H184.312V51.3302H188.312ZM199.711 40.4952V38.4952H197.59L197.714 40.612L199.711 40.4952ZM206.171 40.4952L208.17 40.4746L208.15 38.4952H206.171V40.4952ZM221.278 45.4855L222.515 47.0572L222.518 47.0546L221.278 45.4855ZM221.346 37.8634L220.452 39.6523L220.464 39.6583L220.476 39.6641L221.346 37.8634ZM212.87 35.2316L212.382 37.1712L212.385 37.1719L212.87 35.2316ZM203.505 31.6427L202.386 33.3009L202.395 33.3068L203.505 31.6427ZM204.222 17.2189L205.475 18.7778L205.477 18.7764L204.222 17.2189ZM228.627 24.3966V26.3966H230.688L230.626 24.336L228.627 24.3966ZM222.201 24.3966L220.205 24.5296L220.33 26.3966H222.201V24.3966ZM209.11 20.5001L208.118 18.7636L208.106 18.7705L209.11 20.5001ZM208.631 27.1652L207.624 28.8927L207.637 28.9006L207.651 28.9083L208.631 27.1652ZM216.835 29.6945L216.359 31.6371L216.371 31.64L216.835 29.6945ZM226.61 33.3859L225.501 35.05L225.509 35.0554L226.61 33.3859ZM225.858 48.9376L227.132 50.4795L227.133 50.4784L225.858 48.9376ZM215.262 50.1847C210.524 50.1847 207.247 49.2461 205.142 47.6636C203.116 46.1406 201.908 43.8195 201.707 40.3785L197.714 40.612C197.968 44.9639 199.581 48.4876 202.739 50.8611C205.817 53.1751 210.089 54.1847 215.262 54.1847V50.1847ZM199.711 42.4952H206.171V38.4952H199.711V42.4952ZM204.171 40.5159C204.199 43.2243 205.168 45.5311 207.276 47.08C209.274 48.5483 212.019 49.1261 215.194 49.1261V45.1261C212.399 45.1261 210.655 44.5987 209.645 43.8567C208.745 43.1954 208.188 42.1867 208.17 40.4746L204.171 40.5159ZM215.194 49.1261C218.091 49.1261 220.633 48.538 222.515 47.0572L220.041 43.9137C219.143 44.6204 217.629 45.1261 215.194 45.1261V49.1261ZM222.518 47.0546C224.365 45.5947 225.397 43.6464 225.397 41.3156H221.397C221.397 42.3115 221.016 43.1432 220.038 43.9164L222.518 47.0546ZM225.397 41.3156C225.397 40.2166 225.167 39.1479 224.604 38.2006C224.036 37.2438 223.205 36.5402 222.217 36.0627L220.476 39.6641C220.855 39.8474 221.05 40.0496 221.165 40.2435C221.286 40.4469 221.397 40.7738 221.397 41.3156H225.397ZM222.241 36.0746C220.646 35.2773 217.608 34.3546 213.355 33.2913L212.385 37.1719C216.699 38.2505 219.312 39.0823 220.452 39.6523L222.241 36.0746ZM213.357 33.2919C209.164 32.2379 206.308 31.1081 204.614 29.9786L202.395 33.3068C204.666 34.8205 208.054 36.0833 212.382 37.1712L213.357 33.2919ZM204.623 29.9846C203.42 29.1733 202.565 27.6256 202.565 24.67H198.565C198.565 28.3682 199.67 31.4688 202.386 33.3008L204.623 29.9846ZM202.565 24.67C202.565 22.2957 203.488 20.3753 205.475 18.7778L202.969 15.66C200.081 17.9817 198.565 21.0288 198.565 24.67H202.565ZM205.477 18.7764C207.488 17.1561 210.283 16.2452 214.066 16.2452V12.2452C209.646 12.2452 205.878 13.3168 202.968 15.6614L205.477 18.7764ZM214.066 16.2452C218.635 16.2452 221.745 17.0687 223.689 18.4237C225.517 19.698 226.541 21.6014 226.628 24.4572L230.626 24.336C230.507 20.4242 229.002 17.2519 225.976 15.1424C223.066 13.1137 218.999 12.2452 214.066 12.2452V16.2452ZM228.627 22.3966H222.201V26.3966H228.627V22.3966ZM224.196 24.2636C224.046 22.0137 223.079 20.1286 221.217 18.8873C219.465 17.7195 217.141 17.2697 214.51 17.2697V21.2697C216.779 21.2697 218.186 21.6743 218.998 22.2155C219.699 22.6832 220.127 23.3615 220.205 24.5296L224.196 24.2636ZM214.51 17.2697C212.102 17.2697 209.935 17.7252 208.118 18.7636L210.102 22.2366C211.156 21.6344 212.589 21.2697 214.51 21.2697V17.2697ZM208.106 18.7705C206.106 19.9316 204.991 21.7704 204.991 24.089H208.991C208.991 23.2631 209.288 22.7093 210.114 22.2297L208.106 18.7705ZM204.991 24.089C204.991 26.1139 205.834 27.849 207.624 28.8927L209.639 25.4376C209.241 25.2053 208.991 24.8896 208.991 24.089H204.991ZM207.651 28.9083C208.4 29.3299 209.538 29.7461 210.913 30.1701C212.333 30.6079 214.152 31.0969 216.359 31.6371L217.31 27.7518C215.142 27.221 213.407 26.7531 212.092 26.3477C210.733 25.9287 209.956 25.6157 209.612 25.422L207.651 28.9083ZM216.371 31.64C220.688 32.669 223.675 33.833 225.501 35.05L227.719 31.7218C225.307 30.1132 221.776 28.8163 217.298 27.749L216.371 31.64ZM225.509 35.0554C226.903 35.9747 227.823 37.649 227.823 40.7003H231.823C231.823 36.8245 230.601 33.6225 227.711 31.7163L225.509 35.0554ZM227.823 40.7003C227.823 43.3825 226.787 45.5725 224.583 47.3968L227.133 50.4784C230.215 47.9278 231.823 44.6262 231.823 40.7003H227.823ZM224.584 47.3957C222.42 49.1837 219.385 50.1847 215.262 50.1847V54.1847C220.026 54.1847 224.055 53.021 227.132 50.4795L224.584 47.3957ZM245.785 51.3302V53.3302H247.785V51.3302H245.785ZM238.778 51.3302H236.778V53.3302H238.778V51.3302ZM238.778 44.3234V42.3234H236.778V44.3234H238.778ZM245.785 44.3234H247.785V42.3234H245.785V44.3234ZM245.785 49.3302H238.778V53.3302H245.785V49.3302ZM240.778 51.3302V44.3234H236.778V51.3302H240.778ZM238.778 46.3234H245.785V42.3234H238.778V46.3234ZM243.785 44.3234V51.3302H247.785V44.3234H243.785Z" fill="#1D3C6A" mask="url(#path-1-outside-1_73_151)"/>
<path d="M288.03 9.22229H271.453V53.3824H264.788V9.22229H248.347V3.27502H288.03V9.22229ZM317.322 43.8463V35.8141H312.913C303.57 35.8141 298.899 38.3548 298.899 43.4362C298.899 45.2819 299.583 46.706 300.95 47.7086C302.317 48.6884 304.163 49.1783 306.487 49.1783C308.606 49.1783 310.657 48.6998 312.639 47.7428C314.622 46.7858 316.182 45.4869 317.322 43.8463ZM317.322 49.6569C314.041 52.7102 309.814 54.2369 304.641 54.2369C301.041 54.2369 298.079 53.2685 295.754 51.3317C293.43 49.372 292.268 46.8541 292.268 43.778C292.268 35.3014 299.571 31.0631 314.177 31.0631H317.322C317.322 28.4655 317.185 26.5856 316.912 25.4235C316.638 24.2386 315.875 23.2587 314.622 22.484C313.368 21.7093 311.375 21.3219 308.64 21.3219C302.898 21.3219 299.936 23.3727 299.753 27.4742H293.328C293.806 20.0231 299.024 16.2975 308.982 16.2975C313.63 16.2975 317.253 17.2203 319.851 19.066C322.449 20.9117 323.748 24.5348 323.748 29.9352V53.3824H317.322V49.6569ZM363.088 53.3824H355.09L346.067 39.2321L337.043 53.3824H329.045L342.444 34.5494L330.105 17.1178H338.103L346.067 29.7985L354.031 17.1178H362.029L349.69 34.4811L363.088 53.3824Z" fill="#4A90E2"/>
</svg>
